<svg width="138" height="164" viewBox="0 0 138 164" fill="none" xmlns="http://www.w3.org/2000/svg">
<path fill-rule="evenodd" clip-rule="evenodd" d="M77.9688 122.401L75.8854 96.151C76.4636 96.0833 77.0469 96.0625 77.6458 96.0833C89.4271 96.1406 93.2136 108.969 87.1094 117.078C84.6459 120.349 81.8438 121.01 77.9688 122.401ZM56.2865 114.833C53.099 110.417 52.2917 105.302 53.25 100.318C55.3281 89.5573 63.2761 81.7239 71.3646 74.9896L71.7448 79.8281L72.1771 85.5521C58.974 89.651 51.5573 110.922 66.7969 117.844C60.4531 111.203 61.5156 100.26 72.75 96.9375L74.8125 122.885C67.6823 123.672 60.3698 120.469 56.2865 114.833ZM73.2708 42.1927C74.8125 36.0156 77.3646 31.9219 79.8281 29.3281C82.8698 26.1354 85.7813 25.2083 86.5052 25.4323C87.2396 25.6562 88.1459 27.1042 88.5521 29.8021C88.9531 32.4948 88.8542 36.4271 87.5781 41.6302C85.3802 48.4323 81.7656 53.1042 78.6979 56.0729C75.6354 59.0417 73.0833 61.2604 73.0833 61.2604C72.4531 54.7083 71.6823 48.5625 73.2708 42.1927ZM93.2031 93.4792C89.5417 87.7969 82.6771 84.0729 75.0052 85.0625L74.4896 78.4583L74.0208 72.7292C79.4479 68.0312 84.0521 63.3646 87.1927 57.0104C90.3386 50.651 92.0052 42.5989 91.5521 31.1198C91.224 23.8802 90.1511 19.6406 88.8802 17.1823C87.6042 14.7187 86.125 14.0364 84.9896 13.9114C83.8542 13.7812 78.5208 15.9114 74.3073 23C70.099 30.0937 67.1615 43.651 70.5365 63.3489C63.8333 69.0052 53.6198 78.026 48.9636 86.7292C43.0886 97.7135 44.5625 109.609 51.3906 117.818C56.5313 124 64.6823 127.052 75.0625 127.073L76.7865 147.214C77.0208 149.922 77.3229 156.396 71.3438 158.729C70.224 159.167 69.9844 158.844 70.7761 157.922C73.2708 154.99 73.6511 150.677 70.8125 147.776C68.9063 145.828 66.1146 145.24 63.7188 146.016C53.4636 149.339 56.9167 161.641 65.8125 163.375C72.9271 164.76 81.0833 159.068 80.4011 149.901L78.6511 126.646C83.4792 125.766 88.0313 122.63 90.599 119.953C92.6146 117.849 94.3802 115.281 95.4011 112.208C97.25 105.953 96.8594 99.1667 93.2031 93.4792Z" fill="#BE1E2D"/>
<path fill-rule="evenodd" clip-rule="evenodd" d="M43.6719 114.063C38.0833 111.677 32.5052 110.333 31.9167 107.729C30.7396 102.469 32.5156 97.4531 31.7552 94.5C31.651 93.4219 31.1666 92.1771 30.3229 91.7969C29.2344 91.3073 28 91.3698 27.4739 90.6354C27.026 90.0104 27.3646 88.3646 28.401 87.1042C29.7135 85.5104 33.7292 84.4531 34.1406 82.2188C33.8333 81.0365 32.4948 79.2188 31.1927 77.6927C29.8542 76.1094 28.2031 74.7552 28.9635 73.3334C29.7135 71.9427 30.5469 72.4688 33.6823 68.4896C35.0573 66.75 34.6302 66.5677 33.7031 65.1511C32.0416 62.5886 28.1719 58.3021 31.7083 56.4688C34.7552 54.8959 44.9635 49.474 47.4583 47.7344C52.7812 44.0313 52.6198 38.3229 53.6614 35.1979C54.8906 31.5104 66.4948 20.6875 72.75 17.2917C71.9479 18.3073 71.1614 19.4427 70.4114 20.6979L70.4167 20.7031L70.4062 20.7136C69.7448 21.8386 69.0885 23.1406 68.4635 24.6198C67.8646 26.0313 67.3177 27.5729 66.8385 29.2344C64.5781 37.0261 63.6302 47.8594 65.6667 61.5573C62.6354 64.1615 59.125 67.2917 55.7604 70.7292C51.5312 75.0365 47.5469 79.8125 44.9792 84.6094L44.9583 84.6459C43.9948 86.4479 43.2187 88.224 42.625 89.9531C42.0104 91.7292 41.5573 93.5365 41.2448 95.3438C40.1198 101.927 41.0364 108.396 43.6719 114.063Z" fill="#BE1E2D"/>
<mask id="mask0_1_114" style="mask-type:luminance" maskUnits="userSpaceOnUse" x="0" y="0" width="138" height="138">
<path d="M0.666687 0H137.271V137.333H0.666687V0Z" fill="white"/>
</mask>
<g mask="url(#mask0_1_114)">
<path d="M96.2969 90.0052C110.896 91.5208 122.859 89.0521 136.198 83.5364C132.615 96.9114 126.75 108.687 116.38 118.401C107.349 126.854 96.2083 133.115 83.901 135.766L83.4271 129.734C85.7656 129.24 88.8646 128.229 91.5156 127.208C99.9323 123.964 107.552 118.859 113.813 112.427C119.063 107.031 123.396 100.672 126.391 93.7604C116.839 96.6614 107.969 96.9791 99.6042 96.3698C98.8125 94.0989 97.7031 91.9479 96.2969 90.0052ZM79.0104 77.9219C99.0625 80.5312 118.786 81.4114 137.656 72.1979C137.547 74.5573 137.313 76.8802 136.974 79.1719C120.922 86.2291 105.432 86.5989 91.9792 85.4635C88.4427 82.6458 84.0417 80.8021 79.2083 80.4479L79.0104 77.9219ZM85.25 68.0208C100.219 69.7916 118.948 70.5312 137.302 61.3958C137.547 63.5312 137.688 65.6979 137.724 67.8906C116.677 77.526 95.8229 75.5416 80.0104 73.4323C81.8542 71.7239 83.6198 69.9323 85.25 68.0208ZM91.6771 58.1094C106.5 59.2239 121.849 57.9062 135.406 51.3802C135.938 53.3594 136.38 55.375 136.734 57.4166C121.63 64.3125 104.766 65.4479 88.4115 63.8854C89.6511 62.0469 90.7448 60.1198 91.6771 58.1094ZM71.1563 137.125C66.2292 137.292 61.3542 136.891 56.6146 135.995C51.9063 135.094 47.3385 133.698 42.9844 131.849C23.2708 123.495 7.97396 105.953 2.97916 84.4166C-1.73959 64.0521 3.45833 42.0833 16.8542 25.8489C34.0781 4.98435 61.9688 -3.56773 87.5313 3.55206C107.719 9.16665 124.771 23.9323 132.661 44.1354L133.703 46.7864L131.104 47.9687C119.073 53.4635 106.417 54.9271 93.3802 53.8541C94.0156 52 94.5417 50.026 94.9636 47.9114C105.547 48.6666 115.995 47.6406 125.922 43.6458C118.318 26.625 103.411 14.2239 85.9271 9.35415C62.6198 2.87498 37.2135 10.6458 21.5052 29.6771C9.41146 44.3333 4.63541 64.1198 8.73437 82.5469C13.1562 102.417 27.1875 118.615 45.3177 126.302C49.2656 127.974 53.4219 129.245 57.7292 130.062C62.125 130.901 66.6458 131.172 70.849 131.25L71.1563 137.125Z" fill="#BE1E2D"/>
</g>
</svg>
